<?xml version="1.0" encoding="UTF-8" standalone="no"?>
<!DOCTYPE svg PUBLIC "-//W3C//DTD SVG 1.1//EN" "http://www.w3.org/Graphics/SVG/1.1/DTD/svg11.dtd">
<svg width="100%" height="100%" viewBox="0 0 500 500" version="1.1" xmlns="http://www.w3.org/2000/svg" xmlns:xlink="http://www.w3.org/1999/xlink" xml:space="preserve" xmlns:serif="http://www.serif.com/" style="fill-rule:evenodd;clip-rule:evenodd;stroke-linejoin:round;stroke-miterlimit:2;">
    <g transform="matrix(1,0,0,1,2.044,1.02886)">
        <rect x="-2.058" y="-1.043" width="500.027" height="500.027" style="fill:rgb(249,249,249);"/>
    </g>
    <g transform="matrix(3.91117,0,0,3.91117,-759.004,-991.425)">
        <path d="M247.3,311.5C241.7,308.8 231.6,310.4 222.3,308.9C203.6,305.9 201.3,300.6 201.3,296.7C201.2,292.6 197.5,292.4 197.5,296.8C197.6,322.8 236.7,309.5 247.8,316.2M120.1,302.6C120.2,295.6 115.4,291.1 111.2,290.7C113.7,293.6 114.2,297.8 114.6,301.9C113.8,296.1 109.5,292.3 105.8,292.1C107.8,294.2 108.9,298.5 109.1,302.7C108.5,299.5 105.5,294.7 100.5,294.2C102.8,296.6 103.5,301.1 104,305.2C103.3,301.7 99.7,297.7 95.7,297.4C97.4,298.8 98.8,303.9 99.1,307.8C98.6,306.2 95.8,302.3 91.4,301.8C93.7,303.9 94.7,309 95.1,313M112.6,408.4C111.4,402.9 106.6,397.1 101.2,397.8C103.7,399.5 105.6,405.9 106.3,410C104.6,405.4 100.4,400.5 95.4,401.1C98.1,403.5 99.7,409.4 100.7,413.8C98,408.7 94.7,404.9 89.8,405.5C93.1,408.7 94.3,414.3 95.1,418.6C93.5,415 89.8,410.6 84.8,411.1C87.9,413.9 89.2,420 90.3,424.5C88.3,421.8 85.3,418 80.6,418.4C83.7,421.4 85.1,427.3 86.4,431.8M128.6,604.1C123.3,600.9 116,602 112.6,606.4C116.4,605.7 122,607.8 124.2,609.6C120.6,607.3 113.1,608.7 110.2,612.7C113.6,611.8 119.1,614.1 122,615.8C118.2,614.5 112.3,614.8 108.6,619.3C111.7,618.6 116.8,620.3 120.1,622.2C115.4,621.1 110.8,622.9 108.1,626.1C112.2,625.2 116.8,627.6 119.6,628.9C114.3,628.8 111.1,630.9 109.2,633.1C112.6,632.4 117.8,634.2 121.6,636.2M267.7,637C260.8,636.1 255.1,640.3 253.4,645.2C255.3,643.7 261.3,642.8 265.2,644C259.8,643.7 254.4,648.1 253.3,652.1C255.5,650.3 262.5,649.8 265.1,650.9C260.2,651.1 255.5,654.8 254.1,658.9C256.4,657.4 262.8,656.8 266.4,657.7C261.1,658.5 257.3,662.3 256.1,665.8C259.3,663.7 263.5,663.9 268.7,664.2C263.3,666.2 261.5,668.5 259.7,672.1C262.7,670.2 268,670.1 273.2,670.5" style="fill:rgb(243,59,29);fill-rule:nonzero;"/>
        <path d="M231.9,269.9L207.5,270.8C206.3,270.9 205.4,271.5 205.4,272.9C205.5,281.7 207.2,287.4 213.5,292C212.7,296.9 213.2,299.4 218.3,303.5C218.8,299.5 220.4,297.7 222.9,296C223.1,296.1 223.3,296.1 223.4,296.2C223.1,298 223.1,299.9 223.5,301C224.5,303.8 229.4,303.9 230.7,301.9C231.9,304.8 234.4,304.9 236.4,304.9C238.5,304.9 239.5,303.4 240.2,302C241.4,303 242.6,304.1 243.7,305.5C247.2,310.3 247.8,316.5 247.8,322.4C246.7,322.5 245.6,322.6 244.5,322.7L244.5,320.3C244.4,316.9 236.5,316.3 234.7,319.2C232.7,317 226.5,317.4 226.5,320.9L226.5,322C225.1,320.2 224,318.3 223.1,316.4C220.6,318 219.1,319.2 219.5,324.9C218.4,325 217.3,325.1 216.3,325.2C216.4,331.8 219.3,333.6 242.9,333.1C243.5,339.7 236.9,343.4 232,346.5C219.2,353.8 205.7,361.8 198.4,375.2C192.3,385.8 190.8,398.4 191.5,410.6L198.5,407.5L199.3,411.3C186.7,417.3 163.7,429.5 148.6,436.5C144.9,438.2 135.3,440.6 133.3,437.2C126.4,425.3 120.9,416.3 112.9,407.2C108.8,402.5 81.6,425 86.6,432.6C98,449.9 116.6,474.7 147.6,474.9C179.7,475.1 207.6,463.3 213.7,461.5L215,465.6C210.9,467.4 207.3,468.7 203,470.1C208.6,492.1 215.1,500.7 230.2,514.1L227.1,516.4C224.4,514.8 219.8,509.7 217.3,507.3C185.2,522.5 173.2,537.7 165.5,553.4C157,572.3 158.6,593.8 162.2,613.7C162.9,617 159.3,618.6 156.6,617.6C149.2,615.9 145.1,608.5 138,605.8C134.8,604.4 130.6,602.8 127.1,603.4C121.4,604.4 115.3,633.2 121.1,636C131.9,641.3 143.7,642.4 155.7,648.6C163.6,651.8 171.2,657 180.2,655.6C185.3,655.1 190.4,651.6 190.9,646.2C195.4,626.8 201.7,606.2 216.5,592.2C223.6,585.2 232.8,579.6 241.9,575.3C238.3,561.5 235.6,547.7 235.9,533.3L240.3,533.1C243.5,587.9 258.1,599.4 283.8,624.9C286.4,627.5 286.2,632.4 282.4,633.9C277.4,636.4 271.5,636.5 265.8,636.8C259.7,637.1 264.3,670.9 273.3,670.6C289.1,670.1 305.5,657.8 315,645.7C319,640.7 323.8,635.7 327.6,630.8C332.3,624.7 327.2,617.6 325.8,612C321.9,596 320.1,550 319.9,543.6L325.5,543.7L326.3,532.1C309.6,511.4 312.3,479 305.4,458.1C302.7,449.6 299.7,440.8 299.7,431.8C299.7,419.6 313.5,396.7 313.2,376.3C313.1,367.7 308.3,356.5 308.4,351.4C308.5,336.6 317,339.8 316.8,309C316.7,300.5 315.7,294.2 313.5,285.5C328.4,269.8 307.9,254.1 296.1,263.9C286.6,261.4 285.4,258.9 266.8,258.9C250.9,258.9 241.8,263.2 231.9,269.8M263.6,288.9C262.1,288.9 259.4,288.1 258.6,287C249.9,273.7 247.7,278.5 246.4,283.1C245.3,287.2 240.5,287.3 241.9,281.8C245.4,268.3 254.9,270.2 266.7,288.9M292.2,275.5C294.6,272.3 298.3,269.2 302.3,267.9C308.2,265.9 310.6,270.7 305.9,272.3C302,274 298.7,276.4 295.9,279.2M214.6,292.7C216.1,293.6 218.2,294.7 221.3,295.6C219.6,297 218,299 217.5,301.2C214.8,299.3 213.7,295.8 214.6,292.7M230.6,298C230.6,299.3 230.3,300.6 229.9,301.2C228.9,302.8 225.2,302.7 224.4,300.5C224.1,299.6 224.1,298 224.5,296.5C226.5,297 228.6,297.4 230.6,298M231.8,298.3C234.5,299.1 237.1,300 239.4,301.5C238.9,302.7 238,303.9 236.2,303.9C234.6,303.9 232.8,303.8 231.8,301.9C231.3,300.9 231.5,299.5 231.8,298.3M220.5,324.8C220.2,322 220.5,319.6 222.7,318C223.8,320 225,321.9 226.4,323.6L226.4,324.3M227.4,324.25L227.4,321.1C227.4,317.8 234.4,318 234.5,321.1L234.5,323.6M235.4,323.5L235.4,320.7C235.4,317.4 243.5,317.6 243.5,320.6L243.5,322.8" style="fill-rule:nonzero;"/>
    </g>
</svg>
