<?xml version="1.0" encoding="UTF-8" standalone="no"?>
<!DOCTYPE svg PUBLIC "-//W3C//DTD SVG 1.1//EN" "http://www.w3.org/Graphics/SVG/1.1/DTD/svg11.dtd">
<svg width="100%" height="100%" viewBox="0 0 1024 1024" version="1.1" xmlns="http://www.w3.org/2000/svg" xmlns:xlink="http://www.w3.org/1999/xlink" xml:space="preserve" xmlns:serif="http://www.serif.com/" style="fill-rule:evenodd;clip-rule:evenodd;">
    <rect x="0" y="0" width="1024" height="1024" style="fill:rgb(242,57,29);"/>
    <g>
        <circle cx="512" cy="512" r="478" style="fill:none;stroke:rgb(252,234,215);stroke-width:3px;"/>
        <circle cx="512" cy="512" r="461" style="fill:none;stroke:rgb(252,234,215);stroke-width:1.3px;"/>
    </g>
    <path d="M249.67,602.25L240.75,604.03L239.22,604.8L237.18,605.31L232.34,607.6L225.2,612.44L217.69,619.96L214.63,624.29L211.83,629.64L209.53,636.52L208.77,640.6L208.51,646.46L208.26,646.71L208.51,653.85L208.77,654.1L209.28,659.2L209.79,660.48L210.3,663.53L213.1,670.92L216.92,677.29L218.96,679.84L224.44,685.32L232.34,690.67L239.22,693.73L247.88,696.02L252.47,696.53L252.72,696.79L256.04,696.79L256.29,697.04L264.95,697.04L265.21,696.79L269.8,696.53L276.42,695.26L281.52,693.73L285.34,692.2L291.97,688.63L296.3,685.57L299.74,682.39L302.54,679.08L305.85,673.47L307.38,669.39L308.66,663.02L308.91,658.18L308.66,657.93L308.66,654.87L308.15,652.32L307.38,650.03L304.83,645.44L299.86,640.73L297.06,638.94L291.46,636.39L283.3,634.36L278.46,634.1L278.21,633.85L273.62,633.85L273.36,634.1L270.82,634.1L266.74,634.87L258.84,637.41L250.94,641.24L243.8,645.31L241.26,647.1L235.4,650.15L233.1,650.92L230.3,650.66L228.26,649.65L226.35,647.73L225.33,646.21L224.31,643.4L224.31,639.83L224.82,638.05L225.84,636.01L228.26,633.59L232.59,631.3L236.67,630.28L242.02,630.28L248.39,631.81L252.21,633.34L252.85,633.21L252.85,631.17L252.47,630.79L245.33,628.75L241.77,628.5L241.51,628.24L237.43,628.24L237.18,628.5L234.38,628.75L231.06,629.77L228.01,631.3L225.71,633.08L224.06,634.99L222.53,637.8L221.76,640.6L222.02,647.99L223.55,652.58L226.35,656.91L229.54,660.09L233.1,662.64L238.96,665.19L244.06,666.21L252.21,666.21L252.47,665.95L254.25,665.95L254.51,665.7L258.58,665.19L263.68,663.66L270.56,660.35L287.38,647.86L290.95,646.08L293.49,645.31L298.08,645.31L301.65,646.84L304.58,650.03L305.85,653.09L306.11,654.1L306.11,658.69L305.6,660.48L303.3,664.3L300.88,666.46L298.08,668.25L290.95,671.05L282.79,672.83L277.44,673.34L277.19,673.6L274.89,673.6L274.64,673.85L271.07,673.85L270.82,674.11L251.7,674.36L251.45,674.11L247.37,674.11L247.12,673.85L243.04,673.6L233.1,671.56L225.97,669.01L221.64,666.72L218.83,664.68L214.63,660.22L213.35,658.18L211.83,654.61L210.81,649.52L211.06,642.38L211.83,638.82L213.86,633.97L216.92,629.64L220.87,625.95L223.42,624.16L229.03,621.62L232.85,620.6L237.43,620.34L237.69,620.09L243.3,620.34L249.41,621.62L258.33,624.42L261.13,625.69L270.05,628.75L277.19,630.53L284.58,630.79L284.83,630.53L286.87,630.53L290.69,629.77L293.75,628.75L296.81,627.22L300.37,624.67L303.3,621.74L306.87,616.39L309.17,611.04L309.17,610.28L309.93,608.49L307.51,608.36L305.6,612.57L303.43,614.99L300.88,616.26L298.59,616.52L292.98,614.74L278.46,608.11L268.27,604.29L260.62,602.5L249.92,602.25L249.67,602.25ZM416.06,602.25L415.81,602.5L410.97,603.01L404.08,604.54L399.24,606.07L395.68,607.86L393.89,609.13L391.73,611.3L390.71,613.08L389.69,616.39L388.29,618.56L386.12,614.35L382.04,607.98L381.41,607.35L380,608.49L384.08,614.61L386.63,619.7L387.9,623.27L388.16,626.58L388.41,626.84L388.41,678.82L388.16,680.1L386.76,681.75L384.46,683.03L382.68,683.54L381.41,683.54L381.66,684.05L392.36,690.42L396.95,694.24L399.24,697.04L402.81,693.47L406.38,690.67L410.97,687.61L417.85,683.79L417.85,681.75L415.04,683.03L411.73,683.03L409.82,681.62L409.31,680.1L409.31,644.42L412.75,641.49L416.57,639.71L419.12,639.71L420.14,640.22L421.79,641.87L422.56,643.66L422.56,695.38L422.3,695.64L422.3,697.68L421.54,701.25L419.76,706.09L415.68,712.97L409.95,718.7L405.87,721.25L405.36,721.25L403.58,722.27L400.77,723.03L400.64,723.41L401.79,725.07L425.74,712.84L429.31,710.29L432.75,707.11L437.08,701.25L439.12,697.42L441.93,689.27L443.71,680.1L443.71,641.62L442.18,637.03L440.14,633.46L436.83,628.88L434.41,626.46L433.64,625.95L432.88,625.95L409.95,640.98L409.31,640.85L409.31,615.88L410.07,611.8L412.49,608.11L414.53,606.58L417.08,605.31L421.16,604.29L426.64,604.16L426.51,602.25L416.06,602.25ZM358.98,625.95L345.73,630.28L344.97,630.28L334.77,633.85L334.01,633.85L330.19,635.12L329.17,635.12L327.13,636.14L324.45,638.56L323.44,640.09L322.42,642.38L321.4,645.95L321.14,649.01L320.89,649.26L320.89,653.34L320.63,653.59L320.63,672.96L320.89,673.22L320.89,676.53L321.91,679.84L324.71,684.43L327.89,687.61L335.54,692.71L343.95,697.04L350.83,691.44L355.67,688.12L363.57,683.28L372.87,678.31L372.11,677.55L371.85,676.78L371.47,676.66L367.39,678.95L362.29,680.48L357.45,680.73L352.61,679.71L347.52,677.17L344.84,674.74L342.55,670.92L341.27,667.36L341.02,666.34L341.15,632.83L342.04,633.46L352.87,654.23L354.91,653.47L370.07,645.19L369.05,642.64L367.01,639.33L360.38,626.58L359.75,625.95L358.98,625.95ZM471.36,625.95L453.52,639.96L452.12,641.36L452.37,642.13L453.52,643.02L454.54,641.75L456.32,640.73L459.38,640.73L460.91,641.24L462.06,642.38L462.57,643.4L462.82,646.71L463.08,646.97L463.08,670.92L463.33,671.18L463.33,675.25L463.08,675.51L462.82,679.33L462.06,681.37L461.16,682.26L458.87,683.03L456.58,683.28L455.18,684.43L459.38,685.57L461.16,686.59L461.67,686.59L467.02,689.91L472.5,695.13L473.65,696.79L475.82,693.09L480.53,688.38L483.84,686.08L485.88,685.06L487.66,684.81L488.05,684.43L484.73,681.37L484.22,680.1L484.22,643.91L484.86,643.02L490.47,639.96L494.04,639.71L495.56,640.47L496.46,641.62L496.46,682.39L496.71,682.64L496.71,684.17L498.49,688L502.06,692.58L504.99,695.26L508.05,697.04L528.05,681.62L528.05,680.86L527.42,680.22L524.1,682.01L522.83,682.26L520.03,682.01L518.37,680.35L518.12,677.8L517.86,677.55L517.86,668.63L517.61,668.37L517.61,659.97L517.35,659.71L517.35,647.73L517.61,647.48L517.86,644.17L518.63,641.87L519.77,640.73L521.3,639.96L524.36,639.45L525,638.56L520.28,636.14L515.44,632.83L511.24,628.88L509.07,626.2L508.31,625.95L486.65,639.96L485.37,640.73L484.61,640.73L482.95,635.25L480.91,631.94L477.22,628.75L471.61,625.95L471.36,625.95ZM575.83,625.95L570.48,629.51L561.31,634.36L544.74,640.98L541.81,643.66L541.3,645.19L540.79,647.73L540.79,649.77L540.54,650.03L540.28,659.46L540.03,659.71L540.03,673.22L540.28,673.47L540.28,680.86L540.54,681.12L540.79,686.21L541.81,688.25L544.49,691.18L547.55,693.73L552.64,696.79L553.92,696.53L562.07,690.16L573.54,682.52L574.18,682.64L575.19,686.21L577.23,689.27L581.95,693.73L586.53,696.79L587.3,696.79L595.45,689.65L605.52,682.64L605.26,681.88L604.63,681.24L604.12,681.24L603.61,681.75L600.55,683.03L598.26,683.03L597.75,682.77L595.83,680.61L595.07,678.06L594.82,675L594.56,674.74L594.56,666.85L594.82,666.59L594.82,663.28L595.07,663.02L595.07,645.95L595.83,644.42L597.49,642.77L599.78,641.75L602.84,641.24L602.97,640.6L601.82,639.71L598.26,638.94L594.43,637.67L587.81,634.61L582.97,631.55L576.09,625.95L575.83,625.95ZM632.91,625.95L613.93,641.36L614.05,641.75L614.82,641.75L618.13,640.73L620.93,640.73L621.95,641.24L623.1,642.64L623.36,646.21L623.61,646.46L623.61,659.97L623.86,660.22L623.86,668.37L624.12,668.63L623.61,677.55L623.1,679.84L622.59,680.86L621.44,682.01L619.66,682.77L617.62,683.03L616.6,683.54L616.48,684.17L621.19,686.59L625.27,689.4L629.6,693.22L632.66,696.79L633.17,696.79L652.28,684.05L653.04,683.79L655.33,682.01L656.1,681.75L657.25,686.21L660.56,691.05L664.76,694.75L666.8,696.02L669.35,697.04L688.59,681.62L688.59,680.61L687.95,679.97L684.89,682.01L681.58,682.01L679.8,680.99L678.4,679.59L677.89,678.57L677.89,645.95L678.14,645.7L678.14,644.42L678.65,642.38L679.8,640.73L680.82,640.22L683.62,639.71L685.15,638.94L685.53,638.31L685.15,637.92L684.13,637.92L680.82,636.9L675.21,633.85L671.9,631.3L668.97,628.37L667.31,625.95L666.67,626.58L666.42,627.6L664.89,629.9L661.45,633.34L656.86,636.65L654.32,637.92L653.3,637.92L652.91,638.31L656.74,642.38L656.74,678.82L655.84,679.71L651.77,682.01L651.26,682.01L649.47,683.03L647.69,683.03L646.67,682.52L645.01,680.86L645.01,640.6L644.76,640.34L644.76,638.82L642.72,634.48L639.41,630.15L636.48,627.48L634.44,626.2L633.17,625.95L632.91,625.95ZM724.9,625.95L699.29,643.91L700.31,645.7L700.69,645.82L702.73,644.29L707.32,642.26L711.14,642.26L711.9,642.51L714.2,643.78L715.6,645.19L717.38,648.24L718.15,650.79L718.15,655.38L717.38,657.67L714.96,660.6L712.16,662.13L701.97,664.93L700.95,665.44L699.55,666.85L699.29,667.36L699.55,668.88L701.2,670.54L703.24,670.8L705.53,669.52L709.87,666.21L712.92,664.93L717,664.68L719.68,666.34L713.69,669.27L708.34,672.58L706.04,674.36L701.58,678.82L698.78,682.64L696.23,687.74L694.96,691.82L694.45,694.37L694.45,696.15L694.19,696.4L694.19,704.05L694.45,704.3L694.7,707.11L696.23,711.69L698.53,715.77L702.48,720.23L705.28,722.27L707.57,723.54L713.18,725.07L720.06,725.07L726.17,723.8L731.27,721.5L734.58,719.21L739.81,713.99L743.12,709.15L745.16,704.81L746.18,701.76L747.2,696.91L747.2,694.88L747.45,694.62L747.2,686.72L745.92,680.61L744.65,677.04L742.86,673.47L739.55,668.88L737.13,666.46L732.93,663.53L733.05,663.15L739.42,660.86L744.01,658.82L745.29,658.56L745.41,658.18L744.9,657.67L744.65,656.65L730,662.13L728.98,662.13L722.86,660.6L721.59,660.6L720.95,660.22L728.47,656.78L732.54,654.23L735.22,651.56L736.24,650.03L737.51,646.71L737.51,644.68L737.77,644.42L737.51,641.87L735.98,637.8L733.18,633.97L725.15,625.95L724.9,625.95ZM796.5,625.95L780.7,632.32L779.43,633.08L773.82,635.12L767.71,638.43L764.01,641.87L762.99,643.4L761.47,647.48L760.96,651.81L760.7,652.07L760.45,661.75L760.19,662L760.45,668.88L760.7,669.14L760.7,671.18L761.72,676.27L763.76,681.37L767.33,686.21L771.28,689.65L774.08,691.44L778.67,693.73L787.08,697.04L787.84,697.04L788.6,696.53L792.17,693.22L795.99,690.42L803.64,685.06L813.58,678.69L814.47,677.8L814.47,676.78L814.09,676.66L811.03,677.93L807.97,679.71L802.87,681.5L797.78,681.5L796.5,680.99L795.48,680.99L792.68,679.97L788.35,677.42L784.14,672.96L782.87,670.92L781.34,667.36L781.47,666.97L783.51,665.7L797.01,658.05L812.94,648.5L797.4,626.33L796.76,625.95L796.5,625.95ZM781.47,634.61L781.34,663.79L782.49,663.41L795.1,656.14L781.6,634.74L781.47,634.61ZM561.31,637.92L561.18,681.12L561.69,682.64L563.35,684.05L567.17,684.05L570.74,682.26L573.92,680.1L573.92,645.44L566.66,641.49L561.56,637.92L561.31,637.92ZM720.57,668.25L715.47,670.8L711.27,674.24L707.44,679.33L705.92,682.39L704.39,686.72L703.37,691.56L703.11,695.89L702.86,696.15L702.86,704.81L703.11,705.07L703.11,707.36L703.37,707.62L703.62,710.42L704.39,713.48L705.92,717.3L707.19,719.34L709.61,721.76L711.65,722.78L716.24,723.03L718.78,721.76L720.19,720.36L721.71,717.81L722.99,714.24L724.01,709.65L724.26,705.83L724.52,705.58L724.52,702.27L724.77,702.01L724.77,695.38L725.03,695.13L725.03,689.78L725.28,689.52L725.28,679.08L725.03,678.82L724.77,675L723.75,671.69L722.73,669.9L721.59,668.76L720.7,668.37L720.57,668.25Z" style="fill:rgb(252,234,215);"/>
    <g>
        <circle cx="478" cy="792" r="5.5" style="fill:rgb(252,234,215);"/>
        <circle cx="512" cy="792" r="5.5" style="fill:rgb(252,234,215);"/>
        <circle cx="546" cy="792" r="5.5" style="fill:rgb(252,234,215);"/>
    </g>
    <g id="Bärenkopf" transform="matrix(2.640263,0,0,2.640263,-170.535138,-493.534118)">
        <g transform="matrix(0.1,0,0,0.1,0,0)">
            <path d="M2473,3115C2417,3088 2316,3104 2223,3089C2036,3059 2013,3006 2013,2967C2012,2926 1975,2924 1975,2968C1976,3228 2367,3095 2478,3162" style="fill:rgb(43,51,59);fill-rule:nonzero;"/>
        </g>
        <g transform="matrix(0.1,0,0,0.1,0,0)">
            <path d="M2474.614,3160.064C2472.565,3143.462 2469.386,3127.105 2464.563,3111.375C2458.408,3091.302 2449.576,3072.247 2437,3055C2426,3041 2414,3030 2402,3020C2395,3034 2385,3049 2364,3049C2344,3049 2319,3048 2307,3019C2294,3039 2245,3038 2235,3010C2231,2999 2231,2980 2234,2962C2233,2961 2231,2961 2229,2960C2204,2977 2188,2995 2183,3035C2132,2994 2127,2969 2135,2920C2072,2874 2055,2817 2054,2729C2054,2715 2063,2709 2075,2708L2319,2699L2319,2698C2418,2632 2509,2589 2668,2589C2854,2589 2866,2614 2961,2639C3079,2541 3284,2698 3135,2855C3157,2942 3167,3005 3168,3090C3170,3398 3085,3366 3084,3514C3083,3565 3131,3677 3132,3763C3132.383,3789.049 3130.467,3815.505 3126.833,3842.095L1944.068,3842.095C1954.32,3810.913 1967.471,3780.722 1984,3752C2057,3618 2192,3538 2320,3465C2369,3434 2435,3397 2429,3331C2193,3336 2164,3318 2163,3252C2173,3251 2184,3250 2195,3249C2191,3192 2206,3180 2231,3164C2240,3183 2251,3202 2265,3220L2265,3209C2265,3174 2327,3170 2347,3192C2365,3163 2444,3169 2445,3203L2445,3227L2478,3224C2478,3202.812 2477.226,3181.238 2474.614,3160.064ZM2306,2980C2286,2974 2265,2970 2245,2965C2241,2980 2241,2996 2244,3005C2252,3027 2289,3028 2299,3012C2303,3006 2306,2993 2306,2980ZM2205,3248L2264,3243L2264,3236C2250,3219 2238,3200 2227,3180C2205,3196 2202,3220 2205,3248ZM2146,2927C2137,2958 2148,2993 2175,3012C2180,2990 2196,2970 2213,2956C2182,2947 2161,2936 2146,2927ZM2318,2983C2315,2995 2313,3009 2318,3019C2328,3038 2346,3039 2362,3039C2380,3039 2389,3027 2394,3015C2371,3000 2345,2991 2318,2983ZM2274,3242.5L2345,3236L2345,3211C2344,3180 2274,3178 2274,3211L2274,3242.5ZM2922,2755L2959,2792C2987,2764 3020,2740 3059,2723C3106,2707 3082,2659 3023,2679C2983,2692 2946,2723 2922,2755ZM2636,2889L2667,2889C2549,2702 2454,2683 2419,2818C2405,2873 2453,2872 2464,2831C2477,2785 2499,2737 2586,2870C2594,2881 2621,2889 2636,2889ZM2354,3235L2435,3228L2435,3206C2435,3176 2354,3174 2354,3207L2354,3235Z" style="fill:rgb(252,234,215);fill-rule:nonzero;"/>
        </g>
    </g>
</svg>
